<?xml version="1.0" standalone="no"?>
<!DOCTYPE svg PUBLIC "-//W3C//DTD SVG 20010904//EN"
 "http://www.w3.org/TR/2001/REC-SVG-20010904/DTD/svg10.dtd">
<svg version="1.0" xmlns="http://www.w3.org/2000/svg"
 width="700.000000pt" height="700.000000pt" viewBox="0 0 700.000000 700.000000"
 preserveAspectRatio="xMidYMid meet">
<metadata>
Created by potrace 1.11, written by Peter Selinger 2001-2013
</metadata>
<g transform="translate(0.000000,700.000000) scale(0.100000,-0.100000)"
fill="#000000" stroke="none">
<path d="M154 6986 c-55 -20 -105 -67 -130 -120 l-24 -51 0 -3305 c0 -3195 1
-3306 19 -3346 25 -54 83 -110 134 -127 34 -11 159 -13 687 -12 706 1 683 -1
745 61 15 15 37 48 48 73 20 45 21 62 21 886 l1 840 157 1 158 1 59 -106 c32
-58 90 -162 128 -231 66 -117 85 -152 148 -265 45 -80 76 -137 165 -295 48
-85 103 -184 122 -220 140 -258 325 -581 354 -618 50 -66 104 -103 174 -120
14 -3 345 -6 735 -6 l710 0 53 23 c54 25 106 74 123 120 19 47 20 123 3 183
-10 33 -49 114 -88 181 -298 508 -361 616 -381 647 -49 78 -85 141 -85 150 0
6 -4 10 -9 10 -5 0 -11 8 -14 18 -4 9 -18 37 -32 61 -15 24 -61 103 -104 175
-123 205 -272 458 -291 491 -9 17 -101 173 -204 347 -102 174 -186 319 -186
322 0 6 245 403 405 656 40 63 152 243 250 400 97 157 187 301 200 320 70 107
257 414 278 456 76 152 43 295 -82 351 -32 15 -104 17 -656 19 -341 1 -650 -2
-687 -6 -145 -17 -207 -73 -349 -310 -54 -91 -106 -174 -114 -185 -8 -10 -15
-22 -15 -27 0 -4 -13 -26 -29 -50 -16 -24 -39 -61 -51 -83 -12 -22 -87 -146
-165 -275 -78 -129 -201 -332 -272 -450 l-130 -215 -139 -2 -139 -2 -1 1727
c0 1400 -3 1735 -13 1767 -19 57 -55 102 -104 128 l-42 22 -655 1 c-471 1
-664 -1 -686 -10z"/>
<path d="M5834 2219 c-453 -99 -778 -515 -789 -1009 -3 -146 6 -228 41 -348
25 -87 99 -254 115 -260 5 -2 9 -8 9 -12 0 -41 186 -240 296 -315 78 -55 244
-124 329 -139 17 -3 46 -8 65 -11 48 -8 189 -9 231 -1 234 46 411 136 556 284
140 144 248 345 287 537 4 17 9 41 12 55 12 53 11 280 -2 355 -75 429 -374
765 -769 862 -92 23 -283 24 -381 2z"/>
</g>
</svg>
