<svg xmlns="http://www.w3.org/2000/svg" width="438" height="434"><title>hero-bg</title><desc>Created with Sketch.</desc><g fill="none"><g><g><g><g transform="translate(309.401 .769)"><circle cx="33.496" cy="33.496" r="33.496" fill="#F2F2F2"/><circle id="Time" cx="33.496" cy="6.952" r="1.896" fill="#000" fill-opacity=".1"/><circle id="Time" cx="6.952" cy="33.496" r="1.896" fill="#000" fill-opacity=".1"/><circle id="Time" cx="60.04" cy="33.496" r="1.896" fill="#000" fill-opacity=".1"/><circle id="Time" cx="33.496" cy="60.04" r="1.896" fill="#000" fill-opacity=".1"/><path fill="#AFB9C5" d="M33.5 10.74l1.26 22.12h-2.53zM44.68 44.68l-11.62-9.83 1.8-1.8z"/><circle cx="33.496" cy="33.496" r="2.528" fill="#C5CFD6"/></g><g opacity=".346"><path id="Background-Shape" fill="#F2F2F2" d="M307.44 210.3c-4.36-48.72-238.4-142.76-281.84-96.6-43.44 46.14-1.67 132.75 89.37 154.93 91.05 22.17 196.83-9.6 192.47-58.33z"/><path fill="#DDE3E9" d="M162.64 241.96c3.9-41.4 213.56-121.28 252.48-82.08 38.92 39.2 29.07 121.67-52.5 140.5-81.56 18.85-203.9-17.03-199.98-58.42z"/></g><g id="Lamp" transform="translate(321.395 72.214)"><path stroke="#CBCBCB" stroke-width="5.056" d="M37.92 22.9l11.76-11.74c1.97-1.97 5.17-1.97 7.15 0l31.3 31.28c1.9 1.9 2.95 4.47 2.95 7.15v207.15"/><rect id="Lamp-Base" width="37.288" height="4.424" x="72.123" y="256.122" fill="#AFB9C5" rx="1.896"/><g transform="rotate(45 30.389 31.021) translate(9.217 9.217)"><path id="Lamp" fill="#C5CFD6" d="M20.88.87c11.5 0 20.85 9.34 20.85 20.86v17.7H.03v-17.7C.02 10.2 9.35.87 20.87.87z"/><ellipse id="Lamp" cx="20.988" cy="38.833" fill="#F2F2F2" rx="20.856" ry="4.108"/></g></g><g><g id="Big-Ass-Leaf"><path id="leaf" fill="#DDE3E9" d="M30.02 182.45c1.8-.22 3.74-.14 5.42.57 3.58 1.52 4.6 5.75 4.55 9.2-.06 3.7-.85 7.73 1.96 10.7 1.3 1.4 2.9 2.43 4.18 3.83 1.35 1.5 2.42 3.2 3.2 5.03 1.45 3.37 2.16 7.33.84 10.86-1.17 3.1-4.1 5.9-3.46 9.45.66 3.68 4.37 6.5 6.7 9.24 2.63 3.1 5.05 7.08 5.45 11.16.38 3.9-1.32 7.86-3.93 10.8-5.2 5.9-13.05 8.8-20.95 8.8-3.37-.02-7.17-.17-10.07-1.97-.9-.56-1.36-1.2-1.9-2.06-.47-.78-1.1-1.28-1.83-1.83-1.6-1.22-2.76-2.85-3.5-4.68-2.87-7.1-.58-15.88 3.44-22.18.95-1.5 1.73-2.93 1.27-4.7-.48-1.87-1.66-3.55-2.7-5.15-1.04-1.57-2.23-3.08-3.04-4.8-.85-1.78-1.08-3.65-.93-5.6.28-3.68 1.86-7.07 4.1-10.03 2.18-2.85 4.72-5.57 4.72-9.3 0-3.96-2.64-7.48-1.5-11.5.46-1.66 1.4-3.37 2.9-4.37 1.45-.96 3.36-1.27 5.07-1.48z"/><path id="middle-thing" fill="#C5CFD6" d="M28.83 188.78c.04-.54.67-.85 1.16-.72.64.2.63.8.62 1.34-.06 1.67.18 3.3.6 4.92.82 3.36 2.36 6.47 3.58 9.7 1.23 3.24 1.8 6.58 1.08 10-.67 3.23-1.73 6.37-2.42 9.6-.6 2.85-1.26 5.85-.33 8.7.9 2.73 2.86 4.95 4.28 7.43 2.95 5.1 4.26 10.78 4.43 16.62.08 2.7 0 5.45-.62 8.1-.35 1.54-.84 3.6-2.15 4.67-.6.5-1.64.65-2.15-.07-.48-.67-.06-1.72.1-2.44.65-3.13.78-6.32.63-9.5-.15-3.07-.52-6.13-1.5-9.07-.88-2.72-2.25-5.17-3.85-7.55-1.64-2.42-3.34-4.85-4-7.73-.7-2.92-.14-5.9.6-8.76.8-3.02 1.83-5.97 2.9-8.92 1.04-2.87 1.4-5.6.83-8.6-1.13-5.94-4.16-11.52-3.77-17.7z"/></g><g id="Big-Ass-Leaf"><path id="leaf" fill="#DDE3E9" d="M77.82 189.66c2.24.68 4.46 1.78 6.06 3.5 3.4 3.66 2.35 9.2.48 13.23-2.02 4.34-5.08 8.7-3.35 13.7.8 2.3 2.13 4.37 2.88 6.68.8 2.47 1.15 5.05 1.1 7.62-.07 4.74-1.33 9.8-4.75 13.28-3 3.07-7.93 4.86-9.06 9.37-1.17 4.7 1.7 9.97 2.97 14.43 1.44 5.05 2.18 11 .5 16.03-1.62 4.83-5.7 8.62-10.33 10.76-9.22 4.26-19.94 3.6-29.2-.53-3.94-1.75-8.3-3.9-10.76-7.55-.75-1.12-.97-2.1-1.14-3.4-.15-1.18-.62-2.1-1.18-3.14-1.24-2.27-1.74-4.8-1.64-7.35.4-9.9 7.72-19.1 15.76-24.45 1.9-1.28 3.58-2.57 3.98-4.92.42-2.44-.1-5.04-.47-7.48-.38-2.4-.97-4.8-1.02-7.24-.05-2.55.66-4.88 1.87-7.12 2.27-4.2 5.93-7.4 10.13-9.72 4.04-2.24 8.46-4.14 10.44-8.55 2.1-4.66.85-10.2 4.3-14.37 1.43-1.72 3.43-3.26 5.73-3.65 2.2-.38 4.6.24 6.72.88z"/><path id="middle-thing" fill="#C5CFD6" d="M73.24 197.4c.32-.62 1.22-.67 1.73-.24.67.56.33 1.27.03 1.9-.94 1.96-1.5 4-1.9 6.14-.78 4.42-.6 8.9-.86 13.38-.27 4.47-1.35 8.73-3.98 12.4-2.48 3.47-5.37 6.64-7.87 10.1-2.2 3.06-4.54 6.27-4.94 10.12-.4 3.7.75 7.38 1.12 11.05.76 7.6-.7 15-3.54 22-1.33 3.26-2.84 6.46-4.97 9.28-1.23 1.63-2.88 3.82-4.97 4.4-.96.25-2.26-.1-2.48-1.22-.2-1.04.84-2.06 1.4-2.84 2.4-3.35 4.22-7.06 5.7-10.9 1.43-3.72 2.62-7.54 3.02-11.53.38-3.7.06-7.3-.56-10.97-.64-3.73-1.36-7.5-.64-11.26.73-3.82 2.93-7.05 5.3-10.05 2.52-3.18 5.27-6.13 8.06-9.06 2.72-2.87 4.58-5.9 5.48-9.76 1.8-7.63 1.16-15.83 4.86-22.95z"/></g><g><path fill="#C5CFD6" d="M8.56 217.74c3.72 0 7 1.97 9.25 4.77 2.66 3.3 3.2 7.3 4.26 11.2.54 1.95 1.45 3.88 3.06 5.2 1.47 1.2 3.32 1.45 5.08 2.04 3.5 1.17 6.32 4 7.44 7.45 1.36 4.2-.08 8.44.17 12.7.23 3.92 4.1 6.37 7.2 8.24 3.07 1.85 5.83 3.6 6.75 7.2.98 3.82 1.3 8.1-.05 11.87-2.26 6.3-8.86 9.07-15.24 9.5-5.8.4-13.07-.22-17.42-4.43-2.6-2.5-3.55-6.03-3.43-9.53.08-2.18.5-4.33 1.07-6.43.4-1.5.93-2.97 1.08-4.5.4-4.1-3.38-4.9-6.6-6.02-4.1-1.43-6.97-4.13-8.96-7.9-1.87-3.5-2.65-7.43-1.54-11.3.57-1.96 1.6-3.75 3-5.27.62-.66 1.5-1.2 2.04-1.92.52-.65.4-1.5.23-2.27-.83-3.54-3.4-6.48-4.33-10.03-.83-3.2-.34-7.18 2.6-9.25 1.25-.9 2.8-1.27 4.36-1.28z"/><path fill="#AFB9C5" d="M13.63 227c3.95 4.2 5.02 9.9 5.34 15.43.18 3.1 0 6.37.9 9.38.78 2.6 2.6 4.56 4.5 6.42 3.8 3.74 8.02 7.55 9.13 12.97.65 3.17.2 6.45 1.1 9.6.82 2.86 2.26 5.66 4.02 8.08 1.4 1.94 3.24 3.43 4.78 5.24.47.56 1.15 1.37.95 2.15-.22.92-1.4 1.2-2.2 1.06-1.94-.33-3.56-2.17-4.82-3.5-1.85-1.97-3.4-4.07-4.7-6.43-1.4-2.62-2.54-5.4-3.02-8.34-.5-3.05-.25-6.23-1.4-9.16-1.94-4.93-6.64-7.84-10.03-11.68-4.24-4.78-3.6-10.73-3.17-16.62.23-3.23.47-6.9-1.16-9.84-.63-1.13-2.02-2.18-2.3-3.46-.23-1.17 1.1-2.36 2.1-1.3z"/></g><path fill="#53EFCC" d="M17.84 296.1c0 24.06 3.93 36.66 24.65 36.66 20.7 0 24.64-12.6 24.64-36.66h-49.3z"/></g><g><g transform="translate(89.941 170.336)"><rect width="24.016" height="5.688" x="13.272" y="91.008" fill="#AFB9C5" rx="1.264"/><path fill="#DDE3E9" d="M19.6 72.68c2.7-8.8 4.23-18.06 4.55-27.8h2.9c.33 9.74 1.85 19 4.56 27.8h4.1c5.42 0 9.8 4.4 9.8 9.8s-4.38 9.8-9.8 9.8H14.86c-5.4 0-9.8-4.4-9.8-9.8s4.4-9.8 9.8-9.8h4.74z"/><path id="Shade" fill="#C5CFD6" d="M2.92 1.06C10.16.36 17.42 0 24.65 0c7.24 0 14.48.35 21.72 1.06l2.93 50.22c-8.22.78-16.44 1.18-24.65 1.18-8.22 0-16.43-.4-24.65-1.18L2.92 1.06z"/></g><path fill="#F2F2F2" d="M88.68 267.03h65.72v65.73h-13.27v-51.82H88.68v51.82H75.4v-65.73H88.7z"/></g><g><g><path id="Thi-Succs!" fill="#89F2DB" d="M340 154.67c5.58 13.26 15.06 22.48 20.1 36.27 2.97 8.18 4.2 17.08 4.3 26.18.03 4.95-.06 9.9-.08 14.85-.02 4.82-.15 9.62-.56 14.4-.4 4.83-.87 9.6-1.08 14.44-.16 3.8-.23 8.2-1.5 11.63-1.03 2.74-3.62 3.14-4.3-.18-.38-1.85-.34-3.9-.3-5.8.06-2.45.2-4.88.27-7.32.3-9.77-.08-19.55.1-29.33.2-9.55 1.43-19.1.08-28.6-1.13-7.83-3.98-14.56-7.25-21-3.16-6.22-6.6-12.27-8.72-19.33-.6-2.03-1.08-4.13-1.3-6.3.1-.06.17-.02.23.1zM338.47 180.84c1.1.8 1.72 1.96 2.47 3.12.93 1.43 2.02 2.72 2.95 4.15 1.93 3 3.63 6.18 5.4 9.28 3.35 5.9 5.9 12.2 7.15 19.03 1.3 7.08 1.66 14.4 2.2 21.57.6 7.6 1.18 15.28 1.25 22.92.04 3.4.22 7.05-.2 10.45-.24 2.1-1.2 3.9-3.35 3.9-4.57-.04-6.72-5.1-7.62-9.26-1.32-6.13-1.58-12.62-1.37-18.88.25-7.54 1.56-14.97 2.13-22.5.6-7.94.25-15.76-2.5-23.25-1.37-3.78-2.97-7.48-4.4-11.24-.63-1.6-1.13-3.24-1.96-4.73-.92-1.66-2.06-3.17-2.78-4.95.2.13.4.26.6.4zM391.16 164.98c.14-.1.28-.22.42-.33-.4 1.7-1.14 3.08-1.7 4.64-.5 1.4-.75 2.97-1.1 4.5-.78 3.6-1.7 7.1-2.45 10.72-1.48 7.16-1.2 14.88-.23 22.83.92 7.5 2.37 15 3.07 22.52.57 6.22.82 12.64.27 18.58-.37 4.04-1.6 8.85-4.9 8.45-1.58-.2-2.4-2.08-2.72-4.2-.53-3.4-.64-7-.84-10.4-.46-7.57-.55-15.1-.64-22.6-.1-7.08-.33-14.3.15-21.18.44-6.66 1.87-12.65 3.9-18.18 1.08-2.9 2.1-5.9 3.3-8.67.6-1.33 1.3-2.5 1.87-3.84.47-1.07.84-2.17 1.6-2.85z"/><path id="Thi-Succs!" fill="#53EFCC" d="M339.88 202.76c.6-1.02 1.94 2.33 2.14 2.75-.08-.2-.17-.4-.26-.6 1.2 1.98 2.3 4.06 3 6.35.66 2.26 1.24 4.58 1.88 6.86 1.18 4.3 2.72 8.45 3.8 12.77 1.05 4.2 1.3 8.35 1.06 12.7-.27 4.52-.43 9.12-.12 13.64.15 2.17.85 4.18 1.33 6.26.5 2.1.87 4.2 1.44 6.25.13-.26.15.64.15.7-.02.52-.1.95-.25 1.44-.43 1.25-1.22 2.3-2.43 2.66-2.18.62-4.2-1.36-4.92-3.46-1-3-1.56-6.34-2.05-9.5-.44-2.9-.54-5.82-.4-8.77.25-5.8 1.3-11.52 1.58-17.32.3-6.32-.94-12.25-2-18.4-.5-2.95-.98-5.9-1.96-8.7-.4-1.15-.9-2.16-1.46-3.22-.3-.6-.92-1.67-.52-2.37z"/><path id="Thi-Succs!" fill="#43CDAE" d="M357.6 192.9c-.24 7.23-.68 14.4-1.64 21.56-.98 7.3-2.1 14.6-3.06 21.9-.92 7.1-1.9 14.35-1.76 21.56.1 5.32-.8 14.3 5.12 16.93 5.97 2.66 7.26-8.7 7.65-12.43.76-7.2.52-14.44.15-21.67-.37-7.4-1-14.8-1.77-22.17-.87-8.2-1.54-16.45-2.08-24.67-.27-4.06-.34-8.13-.26-12.2.07-3.84-.08-7.72-1.45-11.36-.08.05-.15.1-.22.15"/><path id="Thi-Succs!" fill="#53EFCC" d="M388.47 215.8c-1.08 1.58-2.16 3.13-3.18 4.8-1.82 2.96-3.47 6.26-3.96 10.5-1.03 8.88-.2 18.48 0 27.63.04 1.87-.2 3.68.54 5.46.67 1.6 1.92 2.84 3.1 2.83 2.56 0 2.17-6.26 2.17-9 0-4.82-.53-9.7-.48-14.5.04-4.77.33-9.56 1.02-14.08.7-4.6 1.72-9 3.07-13.1.2-.57 1.54-4.97.26-4.2"/><path id="Thi-Succs!" fill="#43CDAE" d="M377.2 168.44c-1.67 0-1.66 8.36-1.7 9.43-.2 3.88-.15 7.75-.27 11.63-.25 8.45-.56 17-1.83 25.35-.68 4.5-1.47 8.98-2.33 13.44-.85 4.47-2 8.94-2.56 13.48-.53 4.36-.23 8.8-.16 13.2.08 4.4.2 8.8.8 13.18.13 1.08.3 2.16.48 3.23.15.88.06 2 .3 2.84.42 1.36 2.15 1.8 3.3 1.6 3.17-.6 5.18-4.55 6.26-7.44 1.38-3.7 2.1-7.7 2.83-11.6.83-4.42 1.3-8.9 1.53-13.4.46-9.12-.13-18.26-.78-27.36-.37-5.07-.8-10.1-1.43-15.14-.64-5-1.46-10-2-15.02-.4-3.65-.77-7.3-1.02-10.97-.06-.86-.1-6.46-1.4-6.46"/><path fill="#53EFCC" d="M375.1 229.2c-.27-8.78-3.8-47.32-4.6-57.94-.2-2.65-2.13-13.7-2.38-16.72-.68.85-.62 14.1-.6 17.14 0 3-.38 5.97-.57 8.97-.2 3.05-4.72 42.52-5.3 45.46-1.17 5.85-1.95 11.85-2.55 17.82-.6 5.82-1.5 11.96-.72 17.8.2 1.36.47 2.7.94 3.93.5 1.33.84 2.57 1.24 3.97.65 2.25 1.83 4.23 3.63 5.16 3.7 1.9 5.67-2.4 6.68-6.17 1.6-6 2.64-12.1 3.12-18.4.54-6.98 1.33-13.97 1.1-21"/></g><g transform="translate(329.64 255.024)"><rect width="57.512" height="57.512" x="6.32" fill="#fff" rx="1.264"/><rect id="Leg" width="6.32" height="71.416" y="6.32" fill="#C5CFD6" rx="1.264"/><rect id="Leg" width="6.32" height="71.416" x="31.6" y="6.32" fill="#C5CFD6" rx="1.264"/><rect id="Leg" width="6.32" height="71.416" x="63.832" y="6.32" fill="#C5CFD6" rx="1.264"/></g></g></g><g><g id="Head/Front"><path id="Head" fill="#B28B67" d="M125.37 149.5c-2.92-3.42-4.9-7.62-4.57-12.33.95-13.56 19.82-10.58 23.5-3.73 3.66 6.84 3.22 24.2-1.52 25.43-1.9.5-5.92-.7-10.02-3.18l2.57 18.22h-15.2l5.24-24.4z"/><path fill="#191847" d="M133.52 138.67c.58 8.1 2.12 12.17 4.62 12.17 3.74 0 6.92-2.38 8.56-2.38 1.2 0 .93 1.5.14 2.6-.66.93-3.85 1.8-3.85 3.23 0 1.42 2.5.3 2.5 1.16 0 1.4.46 4.02-1.96 4.02-2.45 0-9.48-.9-10.68-4.53-.78-2.35-1.28-7.22-1.5-14.6-.16-.02-.3-.03-.46-.03-2.1 0-3.8 1.7-3.8 3.8 0 1.07.44 2.04 1.14 2.73-.87 1.24-1.86 2.54-3 3.88-4.23-2.55-7.38-10-3.23-17.17 1.15-3.5 3.75-5.38 6.8-6.25 2.5-1.03 5.07-1.15 7.25-.53 4.26.37 8.07 1.67 9.15 2.44 0 4.05-.78 5.25-7.46 5.15-1.64.87-2.9 2.36-4.22 4.32z"/></g><g id="Bottom/Skinny-Jeans-1"><path id="Leg" fill="#2A2A3F" d="M115.07 226.52l22.96 80.64 16.75 59.43H167L149.2 226.5z"/><path fill="#3B3F48" d="M108.93 226.52c-.54 41.56-2.35 64.23-2.9 68-.56 3.78-9 27.8-25.3 72.07H93.4c20.75-42.48 32.34-66.5 34.75-72.07 2.42-5.58 9.88-28.25 21.12-68h-40.34z"/><g fill="#191847"><path id="Shoe" d="M79.6 378l.63-13.3h13.3c6.3 4.43 14.54 8.02 24.7 10.76V378H94.17l-8.24-1.27V378H79.6z"/></g><g id="Right-Shoe" fill="#191847"><path d="M153.07 378l.63-13.3H167c6.3 4.43 14.54 8.02 24.7 10.76V378h-24.07l-8.23-1.27V378h-6.33z"/></g></g><g id="Body/Long-Sleeve-1"><path id="Skin" fill="#B28B67" d="M170.83 216.46l17.94 17.5c5.22 2.24 9.5 4.7 12.83 7.4.75.9 1.57 2.63-1.96 1.86-3.53-.78-7.27-1.44-7.94-.3-.66 1.16 1.3 2.92.07 4.42-.82 1-3.57-2.18-8.24-9.56l-18.66-11 5.96-10.32zm-79.64 2.47l13.23.05c-8.17 26.4-12.58 40.4-13.24 42.02-1.47 3.64 1.63 9.17 2.96 12.15-4.32 1.93-3.86-5.23-9.3-2.7-4.98 2.32-8.77 6.52-14.5 2.97-.72-.44-1.5-2.08.38-3.36 4.66-3.2 11.37-8.8 12.28-10.64 1.24-2.5 3.96-16 8.17-40.5z"/><path id="Coat-Back" fill="#3F58C5" d="M128.8 163.36l5.48-.94c9.43 23.57 25.9 44.98 49.38 64.24l-17.74 21.58c-23.5-27.42-37.97-55.7-37.1-84.88z"/><path id="Shirt" fill="#DDE3E9" d="M104.93 232.23h48.77c-11.3-27.5-16.95-50.85-16.95-70.06l-14.7-2.2c-11.57 18.6-14.83 41.52-17.12 72.26z"/><path id="Coat-Front" fill="#5C7BFF" d="M121.73 159.98h.97c1.15.03 2.9.1 5.25.2l3.55 10.17c.38 12.4 2.57 37.37 6.6 74.94H106.1c.08 2.58.22 5.2.42 7.84H82.77c3.55-40.14 16.54-71.2 38.95-93.17z"/><path fill="#000" fill-opacity=".1" d="M108.23 212.1c.9 16.16 3.2 27.3 6.84 33.44h-8.94c-.4-11.64.3-22.8 2.1-33.45z"/><path fill="#fff" fill-opacity=".2" d="M113.24 225.9l15.76-7.35v7.34z"/></g></g><g><g><path fill="#B28B67" d="M302.63 246.37c2.92-3.4 4.9-7.6 4.57-12.3-.95-13.5-19.82-10.54-23.5-3.72-3.66 6.83-3.22 24.14 1.52 25.36 1.9.5 5.92-.7 10.02-3.17l-2.57 18.17h15.2l-5.24-24.33z"/><path fill="#191847" d="M292.37 222.5c2-.34 7.4-.56 8.4-.56.63 0 1.32.14 1.7-.44.3-.48.2-1.28.28-1.84.1-.64.26-1.27.42-1.9.43-1.8 1.1-3.52 2.02-5.13 1.72-3.02 4.26-5.38 7.47-6.76 3.54-1.52 7.55-1.86 11.36-1.55 4.08.32 7.77 1.67 11.62 2.93 3.66 1.2 7.5 1.68 11.34 1.1 3.86-.6 6.78-2.7 10.04-4.68 3.34-2.03 7.15-3.35 11.1-3.05 3.68.3 7.08 1.8 10.12 3.83 2.85 1.9 5.2 4.18 6.53 7.4 1.42 3.44 1.42 7.23-.93 10.28-3.4 4.43-9.72 5.57-14.98 5.46-3.05-.08-6.04-.63-8.9-1.64-3.84-1.34-7.15-3.62-10.73-5.46-1.68-.87-3.42-1.58-5.24-2.1-1.77-.5-3.5-.72-5.1.34-1.7 1.13-3.22 2.24-5.15 2.94-1.86.68-3.83 1.06-5.8 1.04-3.86-.03-7.66-1.23-11.4-2.03-3.05-.66-6.3-1.3-9.42-.68-1.3.26-3.2.8-3.66 2.14 7.9 1.43 10.98 11.16 8.76 18.3-1.2 3.86-8.4 8.37-11.22 6.34-1.78-1.3-.7-2.97 0-4.08 1.34-2.13 1.8-4.87-.68-6.36-2.13-1.28-4.38 1.76-4.42 1.76-.6-.05-5.65-2.9-9.15-7.08-3.45.2-3.97-2.06-3.15-3.9.82-1.87 5.96-4.2 8.72-4.65z"/></g><g><g fill="#C5CFD6" transform="matrix(-1 0 0 1 362.967 340.19)"><ellipse cx="48.767" cy="46.432" rx="48.767" ry="46.432"/></g><path id="Skin" fill="#B28B67" d="M222.04 425.9c8.12-17.92 14-33.52 16.34-41.75 4.04-14.1 7.1-26.5 7.88-31.13 1.85-11.04-14.23-11.68-16.35-6.2-3.2 8.3-8.82 35.6-15.57 76.83l7.7 2.24zm94.13-56.23c-7.44-2.94-33.52-12.12-46.1-14.72-3.6-.75-7.1-1.44-10.4-2.07-9.8-1.86-14.86 15.75-5.43 17.1 23.47 3.37 56.75 6.85 59.6 7.24 4 .55 7-5.7 2.33-7.55z"/><path fill="#5695D2" d="M253.66 348.03l40.27-20.45v-4.45h-4.8c-38.95 9.9-58.86 16.25-59.7 19.04-.02.03-.03.06-.04.1-.03.02-.05.04-.07.07-7.72 10.6-12.34 62.3-13.86 66.17l14.8 2.22c5.66-20.94 23.76-35.52 23.28-60.6.13-.73.17-1.43.1-2.1z"/><path fill="#72B9FF" d="M290.6 360.18c3.67-.74 7.07-1.4 9.97-1.9 18.75-3.28 24.22-13.3 21-35.15H287c-5.64 1.62-34.98 13.9-50.2 20.42-10.07 4.32-6.9 19.9-1.2 23.94.04.24.14.4.33.5 30.68 12.67 54.96 6.02 63.07 8.14l3.75-11.8-12.16-4.16z"/><g id="Right-Shoe" fill="#E4E4E4"><path id="shoe" d="M313.62 367.75c2 .2 3.43.5 4.28.9 1.02.5 2.43 1.4 4.23 2.7-.58 1.2-5.8 11.9-15.65 32.1-3.15-.5-4.4-1.7-3.75-3.6.66-1.9 1.2-3.5 1.6-4.78l.63-18.16c0-.34.3-.6.65-.6 0 0 .02 0 .03 0l2.8.17c1.57-1.28 2.62-2.45 3.12-3.5.42-.83.65-2.17.7-4 0-.7.6-1.24 1.28-1.23.03 0 .06 0 .1 0z"/></g><g fill="#E4E4E4"><path d="M225.74 422.57c.7 1.88 1.06 3.3 1.06 4.23 0 1.14-.2 2.8-.57 5-1.33 0-13.23 0-35.72 0-.92-3.07-.38-4.72 1.62-4.97 2-.24 3.66-.46 4.98-.66l16.6-7.38c.32-.15.7 0 .84.3 0 0 0 .02 0 .02l1.07 2.6c1.86.85 3.37 1.28 4.53 1.28.94 0 2.24-.38 3.9-1.14.63-.3 1.38 0 1.67.62 0 .03.03.06.04.1z"/></g></g><g><path fill="#B28B67" d="M254.67 305.83l-22.95-10.05c-4.02-4-7.9-7.03-11.65-9.1-1.12-.36-3.03-.47-1 2.5 2.05 2.97 4.06 6.2 3.25 7.23-.82 1.06-3.18-.1-4.1 1.6-.63 1.13 3.35 2.48 11.93 4.05l17.2 13.15 7.32-9.37zm92.78 2.77l-12.98 2.57c13.05 24.26 20.05 37.12 21 38.58 2.13 3.27.14 9.28-.6 12.44 4.6 1.06 2.8-5.86 8.62-4.42 5.32 1.32 9.83 4.7 14.8.14.6-.56 1.05-2.3-1.03-3.2-5.18-2.25-12.84-6.45-14.08-8.07-1.7-2.23-6.95-14.9-15.75-38.05z"/><path fill="#DA6B50" d="M299.2 260.18l-5.48-.94c-11.93 11.54-16.8 39.26-24.75 42.93-7.52 3.47-18.17.1-30.83-4.42l-3.88 8.64c11.5 12.4 36 22.9 45.95 16.9 15.9-9.56 19.56-43.75 19-63.12z"/><path fill="#DDE3E9" d="M323.07 328.82c-21.96 0-38.1 0-48.46 0-2.2 0-1.8-3.2-1.47-4.8 3.7-18.57 18.12-38.6 18.12-65.03l13.97-2.2c11.57 18.55 15.56 41.38 17.85 72.02z"/><path fill="#FF8162" d="M327.9 310c9.88 17.8 18.18 30.58 24.9 38.4l10.17-1.98c-6.55-40.48-25.5-70.35-56.84-89.62H300.6c-12.56 42.67-16 71.1-10.4 85.3h43.63c-.7-10.4-2.9-21.38-5.93-32.1z"/></g></g></g></g></g></svg>