<svg xmlns="http://www.w3.org/2000/svg" xmlns:xlink="http://www.w3.org/1999/xlink" width="126" height="163"><defs><rect id="a" width="43.997" height="28.763" x="92.886" y="13.046" rx=".933"/></defs><g fill="none" fill-rule="evenodd" transform="scale(-1 1) rotate(-8 -6.538 1016.984)"><path fill="#D4A181" d="M61.76 23.83c-1.8-2.08-3.03-4.64-2.82-7.5.58-8.25 12.24-6.44 14.51-2.27 2.27 4.16 2 14.72-.93 15.47-1.17.3-3.66-.43-6.2-1.94l1.6 11.09h-9.4l3.24-14.85z"/><path fill="#191847" d="M69.74 9.52a12.44 12.44 0 00-3.93-.43c.45-1.05.62-2.22.48-3.36-.14-1.11-.64-2.06-1.1-3.04a4.16 4.16 0 00-.83-1.26 2.81 2.81 0 00-1.33-.7 3.6 3.6 0 00-1.52 0c-.23.04-.43.14-.64.2-.23.05-.34-.09-.5-.22-.39-.34-.96-.5-1.45-.56a3.81 3.81 0 00-3.04 1.07c-.17.18-.32.39-.42.62-.04.1-.04.15-.14.19-.09.03-.2.03-.28.06-.89.3-1.65.97-2.06 1.84-.24.5-.36 1.4-.33 2.4.04.99.95 3.6 1.8 4.54.77.85 1.9 1.4 2.98 1.65-.72.81-1.2 1.82-1.56 2.85a13.76 13.76 0 00-.7 3.46c-.09 1.13-.1 2.32.17 3.42a3.7 3.7 0 001.68 2.4c.4.25.85.43 1.3.6.43.17.87.33 1.32.42.87.18 1.87.15 2.53-.53.24-.24.5-.55.68-.85.07-.1.1-.18.03-.28-.1-.13-.24-.22-.36-.32a3.3 3.3 0 01-1.2-2.2c-.1-.9.15-2.07 1.04-2.47 1.1-.48 2.3.08 3.29.6a5.3 5.3 0 012.6-3.41c1.49-.74 3.18-.82 4.7-1.45.4-.16.8-.35 1.1-.68.12-.14.26-.32.31-.5.06-.25-.1-.46-.22-.64-.65-1-3.11-3.03-4.4-3.42z"/><path fill="#D4A181" d="M57.74 69.69l22.06 51.57 15.9 43.2 4.65.66-23.74-92.8z"/><path fill="#E4E4E4" d="M93.48 162.03a8.88 8.88 0 00-1.17 2.73c-.1.68-.12 1.7-.07 3.03.8.11 8.05 1.12 21.75 3.03.83-1.75.64-2.78-.56-3.1-1.2-.32-2.19-.59-2.98-.82l-9.62-5.9a.23.23 0 00-.32.08l-.95 1.58c-1.2.36-2.16.5-2.86.4a6.98 6.98 0 01-2.55-1.2.47.47 0 00-.67.17z"/><path fill="#E36748" d="M90.61 157.2l9.36-1.44a671.17 671.17 0 00-9.02-40.31 563.04 563.04 0 00-12.66-42.9l-25.35-3.53a394.3 394.3 0 0016.82 47.91 304.34 304.34 0 0020.85 40.26z"/><path fill="#D4A181" d="M55.84 69.43c-5.09 16.33-13.36 36.95-13.95 37.54-.4.4-12.83 2.67-37.31 6.83l.43 4.19c28.5-.1 43.66-1.13 45.48-3.12 2.72-2.98 17.68-27.42 24.3-42.8l-18.95-2.64z"/><path fill="#FF8162" d="M13.3 111.44l.85 6.77c20.64 4.72 33.63 5.2 38.97 1.43 5.34-3.77 13.06-19.56 23.15-47.37L52.1 68.91c-7.14 22.92-11.01 34.85-11.6 35.77-.6.92-9.66 3.18-27.2 6.76z"/><path fill="#E4E4E4" d="M6.28 112.28a9.01 9.01 0 00-2.97-.7c-.7.02-1.72.18-3.05.46.03.84.29 8.35.78 22.55 1.9.52 2.91.14 3.02-1.12.1-1.27.2-2.32.3-3.16l4.23-10.8a.23.23 0 00-.13-.3l-1.77-.68a7.35 7.35 0 01-.9-2.82c-.02-.66.23-1.6.76-2.81a.47.47 0 00-.27-.62z"/><path fill="#D4A181" d="M76.09 46.96l13.6-7.35a33.48 33.48 0 016.68-6.18c.67-.28 1.85-.45.75 1.48-1.1 1.92-2.16 3.99-1.6 4.58.55.6 1.95-.23 2.61.75.45.66-1.93 1.7-7.14 3.1l-9.88 8.94-5.02-5.32zm21.3 6.2l5.97-3.24c.84-3.14 1.84-4.73 3-4.75.9-.41-.66 3.57 1.04 3.22 1.7-.34 5.84-3.38 6.56-2.77 1.05.92.11 3.72-1 5.12-2.07 2.61-3.79 3.5-8.03 4.67a23.45 23.45 0 00-7.2 3.67l-.34-5.91z"/><path fill="#DAB351" d="M69.46 45.32a33.74 33.74 0 0017.9-5.29l2.66 5.86c-4.68 4.58-11.25 8.35-17 8.19-4.53-.13-6.84-5.54-3.56-8.76z"/><path fill="#FFD66D" d="M75.88 54.72c5.05 1.25 13.54-.22 25.44-4.4 2.95 6.03 4.32 10.33 4.1 12.9-10.22 5.26-18.97 7.61-26.18 7.76.23 4.23-.3 8.25-2.04 11.92-3.6 7.55-24.66.56-31.74 1.94-4.44-14.22 4.14-20 4.14-29.1.01-9.96 8.12-25.3 9.3-25.3h10.88c.6 7.61 3.62 16 6.1 24.28z"/><path fill="#C5CFD6" d="M115 36.5s0-.02 0 0M115 36.45c0 .01 0 .02 0 .03 0 0 0 0 0-.01-.04.11-.01.04 0-.02"/><path fill="#C5CFD6" d="M115 36.48s0 0 0 .01c-.02.03 0-.01 0-.01M115 36.5v-.01zM115 36.5c0-.01 0-.01 0-.01M115 36.5c-.01 0 0-.03 0 0M115 36.5v-.01"/><mask id="b" fill="#fff"><use xlink:href="#a"/></mask><use fill="#72B9FF" xlink:href="#a"/><path fill="#FFF" d="M81.29 6.78l34.95 26.67 31.04-27.02z" mask="url(#b)" opacity=".266"/></g></svg>