<?xml version="1.0" encoding="UTF-8"?>
<svg width="109px" height="14px" viewBox="0 0 109 14" version="1.1" xmlns="http://www.w3.org/2000/svg" xmlns:xlink="http://www.w3.org/1999/xlink">
    <!-- Generator: Sketch 57.1 (83088) - https://sketch.com -->
    <title>squiggle</title>
    <desc>Created with Sketch.</desc>
    <g id="Marketing-site" stroke="none" stroke-width="1" fill="none" fill-rule="evenodd">
        <g id="About" transform="translate(-251.000000, -289.000000)" stroke="#FF8162" stroke-width="5.60000008">
            <path d="M257.069479,300.951384 L260.823395,296 C263.680469,292.231543 269.051523,291.492722 272.81998,294.349796 C273.442781,294.821976 273.998004,295.377199 274.470184,296 C277.327258,299.768457 282.698312,300.507278 286.466769,297.650204 C287.08957,297.178024 287.644794,296.622801 288.116973,296 C290.974048,292.231543 296.345102,291.492722 300.113559,294.349796 C300.73636,294.821976 301.291583,295.377199 301.763763,296 C304.620837,299.768457 309.991891,300.507278 313.760348,297.650204 C314.383149,297.178024 314.938372,296.622801 315.410552,296 C318.267626,292.231543 323.63868,291.492722 327.407137,294.349796 C328.029938,294.821976 328.585162,295.377199 329.057341,296 C331.914416,299.768457 337.28547,300.507278 341.053927,297.650204 C341.676728,297.178024 342.231951,296.622801 342.704131,296 C345.561205,292.231543 350.932259,291.492722 354.700716,294.349796 C355.323517,294.821976 355.87874,295.377199 356.35092,296 L360,300.813106 L360,300.813106" id="squiggle" transform="translate(307.000000, 296.000000) scale(-1, 1) translate(-307.000000, -296.000000) "></path>
        </g>
    </g>
</svg>